<?xml version="1.0" standalone="no"?>
<!DOCTYPE svg PUBLIC "-//W3C//DTD SVG 20010904//EN"
 "http://www.w3.org/TR/2001/REC-SVG-20010904/DTD/svg10.dtd">
<svg version="1.0" xmlns="http://www.w3.org/2000/svg"
 width="715.000000pt" height="267.000000pt" viewBox="0 0 715.000000 267.000000"
 preserveAspectRatio="xMidYMid meet">

<g transform="translate(0.000000,267.000000) scale(0.100000,-0.100000)"
fill="#000000" stroke="none">
<path d="M6520 2394 c-124 -24 -226 -43 -227 -44 -2 0 -3 -13 -3 -29 0 -25 5
-30 43 -39 24 -6 52 -21 63 -33 18 -20 19 -43 19 -729 0 -703 0 -709 -21 -737
-11 -15 -40 -35 -62 -43 -36 -12 -42 -19 -42 -42 l0 -28 305 0 305 0 0 29 c0
25 -5 30 -33 35 -43 8 -76 43 -88 93 -5 21 -9 392 -9 826 0 623 -3 787 -12
786 -7 -1 -114 -21 -238 -45z"/>
<path d="M250 2366 c0 -33 1 -34 50 -41 72 -10 132 -43 153 -85 16 -33 17 -83
15 -722 -3 -679 -3 -687 -24 -715 -21 -28 -85 -56 -156 -68 -34 -5 -38 -9 -38
-36 l0 -30 518 3 c496 4 520 5 597 26 265 73 415 235 415 447 0 118 -50 228
-138 305 -61 54 -184 114 -265 130 -37 8 -67 16 -67 19 0 4 23 12 52 19 70 16
173 65 223 106 52 43 90 114 105 194 29 164 -47 315 -198 391 -151 76 -290 91
-859 91 l-383 0 0 -34z m845 -57 c59 -15 117 -67 144 -128 60 -140 45 -381
-29 -465 -48 -54 -173 -96 -292 -96 l-38 0 0 300 c0 229 3 308 13 333 25 59
104 81 202 56z m40 -795 c34 -12 69 -36 107 -74 75 -75 98 -146 98 -299 0
-160 -32 -254 -109 -324 -67 -60 -198 -85 -277 -52 -25 10 -40 26 -54 57 -18
40 -20 68 -20 382 l0 339 103 -6 c59 -3 123 -12 152 -23z"/>
<path d="M3330 1845 c-124 -24 -226 -44 -227 -44 -2 -1 -3 -14 -3 -31 0 -26 4
-30 38 -35 70 -11 86 -25 95 -85 4 -30 7 -231 5 -445 -3 -447 0 -431 -88 -462
-44 -15 -50 -21 -50 -45 l0 -28 335 0 335 0 0 29 c0 27 -3 29 -47 36 -27 4
-60 14 -75 23 -50 29 -53 50 -53 407 0 323 1 331 23 380 28 61 48 84 89 101
44 19 73 4 114 -57 58 -83 143 -111 219 -70 141 74 104 300 -57 347 -122 36
-248 -25 -371 -181 l-31 -40 -1 123 c0 91 -3 122 -12 121 -7 0 -114 -20 -238
-44z"/>
<path d="M4410 1844 c-124 -24 -226 -43 -227 -44 -2 0 -3 -13 -3 -30 0 -26 4
-30 38 -35 73 -12 80 -15 91 -43 9 -20 11 -147 9 -459 l-3 -431 -23 -25 c-13
-14 -43 -30 -68 -37 -39 -11 -44 -16 -44 -41 l0 -29 340 0 340 0 0 28 c0 26
-4 28 -62 39 -123 24 -132 55 -126 463 5 302 9 331 58 399 24 35 83 64 110 56
11 -3 39 -32 63 -63 53 -71 95 -95 160 -89 51 4 88 26 121 71 17 22 21 42 21
100 0 62 -4 78 -28 114 -58 88 -187 113 -298 59 -52 -25 -160 -126 -201 -187
-16 -24 -17 -20 -17 103 -1 95 -4 127 -13 126 -7 -1 -114 -21 -238 -45z"/>
<path d="M2284 1870 c-196 -27 -324 -112 -360 -238 -40 -135 19 -240 138 -249
96 -8 175 52 185 138 4 38 0 51 -32 99 -40 58 -47 98 -24 126 40 49 193 61
263 21 69 -39 81 -71 84 -237 l4 -145 -179 -58 c-218 -70 -308 -114 -389 -189
-81 -76 -108 -136 -108 -238 -1 -145 68 -233 203 -261 137 -28 293 18 429 128
24 20 44 34 46 32 1 -2 10 -25 20 -51 10 -26 31 -59 47 -72 91 -77 262 -52
382 54 l48 43 -20 20 c-19 20 -21 20 -39 4 -25 -23 -49 -21 -66 5 -12 19 -15
93 -18 413 -3 382 -4 391 -26 441 -44 96 -143 168 -273 198 -83 19 -238 27
-315 16z m256 -774 l0 -194 -41 -35 c-90 -77 -203 -68 -244 20 -22 47 -23 145
-1 198 32 76 121 148 236 191 19 7 38 13 43 13 4 1 7 -86 7 -193z"/>
<path d="M5608 1864 c-172 -41 -311 -167 -369 -334 -30 -86 -32 -261 -5 -364
72 -272 231 -456 441 -511 196 -51 433 44 546 217 40 63 105 247 96 272 -12
31 -34 15 -63 -46 -69 -146 -229 -240 -367 -214 -87 16 -174 109 -256 274 -30
59 -38 84 -29 87 142 51 583 217 586 220 2 2 -16 43 -42 90 -140 263 -315 364
-538 309z m86 -116 c26 -17 59 -48 73 -69 22 -34 93 -207 93 -228 0 -8 -289
-121 -309 -121 -4 0 -21 42 -37 93 -37 119 -41 249 -8 294 24 33 79 63 115 63
14 0 47 -14 73 -32z"/>
<path d="M1496 478 c-8 -33 -7 -58 3 -58 11 0 33 59 25 71 -9 16 -21 10 -28
-13z"/>
<path d="M2673 478 c-27 -13 -33 -35 -33 -130 0 -88 17 -118 68 -118 57 0 67
18 67 125 0 90 -2 98 -24 116 -26 21 -45 23 -78 7z m62 -123 c0 -89 0 -90 -25
-90 -25 0 -25 1 -28 93 l-3 93 28 -3 28 -3 0 -90z"/>
<path d="M250 372 c0 -122 10 -142 67 -142 53 0 63 23 63 143 0 87 -3 107 -15
107 -11 0 -15 -20 -17 -101 -3 -86 -6 -104 -21 -113 -33 -20 -47 16 -47 121 0
76 -3 93 -15 93 -12 0 -15 -19 -15 -108z"/>
<path d="M472 468 c-8 -8 -12 -47 -12 -109 0 -90 2 -99 22 -113 26 -18 61 -20
89 -6 15 9 19 22 19 65 0 48 -2 55 -20 55 -17 0 -20 -7 -20 -45 0 -50 -18 -67
-46 -45 -11 10 -14 31 -12 94 l3 81 43 3 c28 2 42 8 42 18 0 18 -90 20 -108 2z"/>
<path d="M695 468 c-8 -26 -45 -209 -45 -223 0 -31 29 -14 36 21 6 32 9 35 38
32 26 -2 32 -8 34 -31 3 -26 26 -47 38 -35 2 3 -7 57 -21 121 -14 64 -25 119
-25 122 0 11 -51 4 -55 -7z m44 -95 c9 -42 8 -43 -16 -43 -22 0 -24 3 -18 33
10 50 18 73 21 62 2 -5 8 -29 13 -52z"/>
<path d="M862 358 c3 -108 5 -123 21 -126 15 -3 17 6 18 85 l0 88 33 -85 c25
-65 38 -85 52 -85 17 0 19 10 22 123 2 117 2 122 -18 122 -18 0 -20 -6 -21
-82 l0 -83 -32 82 c-27 70 -36 83 -55 83 -22 0 -23 -1 -20 -122z"/>
<path d="M1090 355 l0 -125 45 0 c72 0 85 20 85 129 0 108 -9 121 -81 121
l-49 0 0 -125z m90 6 c0 -72 -3 -90 -16 -95 -41 -16 -44 -10 -44 89 l0 95 30
0 30 0 0 -89z"/>
<path d="M1330 474 c0 -3 -11 -55 -25 -116 -29 -130 -29 -128 -10 -128 8 0 18
14 23 33 7 26 14 33 39 35 28 3 31 0 37 -32 7 -34 36 -53 36 -23 0 13 -37 189
-46 220 -5 15 -54 26 -54 11z m43 -111 c6 -30 4 -33 -19 -33 -19 0 -24 4 -20
18 3 9 8 35 12 57 7 36 8 38 14 15 4 -14 10 -40 13 -57z"/>
<path d="M1594 455 c-25 -38 -10 -81 37 -108 21 -12 42 -31 45 -41 9 -27 -23
-48 -59 -40 -24 5 -28 3 -25 -13 4 -24 61 -30 94 -8 21 14 25 23 22 58 -3 38
-7 44 -46 65 -36 20 -43 28 -40 51 3 22 8 26 41 29 24 2 37 8 37 18 0 10 -12
14 -45 14 -36 0 -48 -5 -61 -25z"/>
<path d="M1890 355 c0 -104 2 -125 15 -125 11 0 15 11 15 39 0 36 3 40 33 46
17 4 38 12 45 17 16 13 16 120 0 136 -7 7 -34 12 -60 12 l-48 0 0 -125z m85
45 c0 -42 -2 -45 -27 -48 -27 -3 -28 -2 -28 48 0 50 1 51 28 48 25 -3 27 -6
27 -48z"/>
<path d="M2090 355 l0 -125 55 0 c42 0 55 3 55 15 0 11 -11 15 -40 15 l-40 0
0 40 c0 39 1 40 36 40 28 0 35 3 32 18 -2 11 -14 18 -36 20 -29 3 -32 6 -32
38 0 33 1 34 40 34 29 0 40 4 40 15 0 12 -13 15 -55 15 l-55 0 0 -125z"/>
<path d="M2250 465 c0 -9 9 -15 25 -15 l25 0 0 -110 c0 -91 3 -110 15 -110 12
0 15 19 15 110 l0 110 25 0 c16 0 25 6 25 15 0 12 -14 15 -65 15 -51 0 -65 -3
-65 -15z"/>
<path d="M2440 354 c0 -114 2 -125 18 -122 13 2 18 15 20 51 4 59 18 57 42 -3
10 -25 25 -46 34 -48 20 -4 20 7 0 57 -14 37 -14 42 0 63 22 31 21 91 -2 111
-12 11 -36 17 -65 17 l-47 0 0 -126z m85 51 c0 -34 -3 -40 -22 -43 -21 -3 -23
1 -23 43 0 42 2 46 23 43 19 -3 22 -9 22 -43z"/>
<path d="M2850 355 l0 -125 55 0 c42 0 55 3 55 15 0 10 -11 15 -35 15 l-35 0
0 110 c0 103 -1 110 -20 110 -19 0 -20 -7 -20 -125z"/>
<path d="M3020 355 l0 -125 55 0 c42 0 55 3 55 15 0 10 -11 15 -35 15 -34 0
-35 1 -35 40 0 38 2 40 30 40 23 0 30 4 30 20 0 16 -7 20 -30 20 -28 0 -30 3
-30 35 0 33 2 35 35 35 24 0 35 5 35 15 0 12 -13 15 -55 15 l-55 0 0 -125z"/>
<path d="M3200 375 c0 -92 3 -108 20 -125 20 -20 65 -26 87 -12 22 14 33 63
33 153 0 82 -2 89 -20 89 -18 0 -20 -8 -22 -107 -3 -108 -3 -108 -28 -108 -25
0 -25 0 -28 108 -2 99 -4 107 -22 107 -19 0 -20 -7 -20 -105z"/>
<path d="M3412 358 c3 -101 6 -123 18 -123 12 0 16 17 18 80 l4 80 18 -45 c11
-29 24 -45 35 -45 11 0 24 16 35 45 l18 45 4 -80 c2 -63 6 -80 18 -80 12 0 15
22 18 123 3 122 3 122 -21 122 -20 0 -26 -10 -46 -72 l-24 -73 -23 60 c-13 33
-23 66 -23 73 -1 6 -12 12 -26 12 l-26 0 3 -122z"/>
<path d="M3780 355 c0 -118 1 -125 20 -125 19 0 20 7 20 125 0 118 -1 125 -20
125 -19 0 -20 -7 -20 -125z"/>
<path d="M3900 355 c0 -104 2 -125 15 -125 12 0 15 17 16 93 l0 92 36 -92 c28
-70 41 -93 55 -93 16 0 18 11 18 125 0 103 -3 125 -15 125 -11 0 -15 -19 -17
-87 l-3 -88 -33 88 c-26 68 -38 87 -53 87 -18 0 -19 -8 -19 -125z"/>
<path d="M4120 355 l0 -125 43 0 c23 0 53 7 65 16 20 14 22 23 22 113 0 62 -4
101 -12 109 -7 7 -36 12 -65 12 l-53 0 0 -125z m98 12 c3 -83 -6 -107 -39
-107 -17 0 -19 9 -19 96 l0 95 28 -3 c27 -3 27 -4 30 -81z"/>
<path d="M4330 372 c0 -122 10 -142 67 -142 53 0 63 23 63 143 0 88 -3 107
-15 107 -12 0 -15 -17 -15 -93 0 -105 -14 -141 -47 -121 -15 9 -18 27 -21 113
-2 81 -6 101 -17 101 -12 0 -15 -20 -15 -108z"/>
<path d="M4542 468 c-13 -13 -16 -77 -4 -94 4 -5 24 -20 45 -33 41 -25 48 -54
17 -71 -11 -6 -31 -8 -46 -4 -22 6 -25 4 -22 -12 4 -25 61 -31 94 -9 19 12 24
24 24 55 0 34 -5 42 -42 67 -31 21 -43 36 -43 53 0 22 5 25 38 28 24 2 37 8
37 18 0 18 -80 20 -98 2z"/>
<path d="M4700 465 c0 -9 9 -15 25 -15 l25 0 0 -111 c0 -100 2 -110 18 -107
15 3 17 18 20 111 2 99 4 107 22 107 11 0 20 7 20 15 0 12 -14 15 -65 15 -51
0 -65 -3 -65 -15z"/>
<path d="M4892 358 c3 -108 5 -123 21 -126 14 -3 17 4 17 47 0 67 20 67 44 1
13 -36 23 -50 37 -50 23 0 23 -2 -1 55 -18 41 -18 48 -5 61 18 19 20 105 3
122 -7 7 -36 12 -65 12 l-54 0 3 -122z m94 68 c9 -38 -4 -66 -32 -66 -22 0
-24 4 -24 45 0 41 2 45 25 45 18 0 26 -7 31 -24z"/>
<path d="M5085 463 c30 -74 55 -163 55 -195 0 -27 4 -38 15 -38 11 0 15 11 15
38 0 21 14 76 30 121 17 46 29 86 26 89 -14 13 -34 -12 -50 -64 l-19 -59 -21
63 c-15 47 -24 62 -39 62 -14 0 -17 -4 -12 -17z"/>
<path d="M5400 355 c0 -103 3 -125 15 -125 11 0 15 19 17 88 l3 87 18 -52 c26
-73 49 -72 75 5 l20 57 1 -92 c1 -76 4 -93 16 -93 13 0 15 21 15 125 0 117 -1
125 -19 125 -15 0 -25 -15 -40 -55 -12 -31 -21 -60 -21 -65 0 -28 -18 -2 -38
55 -18 49 -28 65 -43 65 -18 0 -19 -9 -19 -125z"/>
<path d="M5695 468 c-8 -24 -45 -208 -45 -223 0 -31 28 -14 34 21 7 32 10 35
39 32 27 -2 33 -8 37 -33 3 -19 12 -31 24 -33 15 -3 18 0 13 19 -3 13 -16 69
-28 126 -20 96 -23 103 -46 103 -13 0 -26 -6 -28 -12z m45 -105 c8 -31 7 -33
-17 -33 -24 0 -24 2 -18 43 9 51 18 69 23 42 2 -11 7 -35 12 -52z"/>
<path d="M5876 464 c-12 -12 -16 -37 -16 -109 0 -86 2 -95 22 -109 26 -18 61
-20 89 -6 15 9 19 22 19 65 0 48 -3 55 -19 55 -17 0 -20 -8 -23 -47 -3 -40 -6
-48 -23 -48 -19 0 -20 7 -20 90 l0 90 38 3 c24 2 37 8 37 18 0 20 -83 19 -104
-2z"/>
<path d="M6100 474 c0 -3 -11 -55 -25 -116 -29 -130 -29 -128 -10 -128 8 0 18
14 23 33 7 26 14 33 39 35 28 3 31 0 37 -32 7 -34 36 -53 36 -23 0 13 -37 189
-46 220 -5 15 -54 26 -54 11z m43 -111 c6 -30 4 -33 -19 -33 -19 0 -24 4 -20
18 3 9 8 35 12 57 7 36 8 38 14 15 4 -14 10 -40 13 -57z"/>
<path d="M6260 466 c0 -10 13 -16 39 -18 l39 -3 -45 -97 c-24 -54 -41 -102
-38 -108 3 -5 33 -10 66 -10 46 0 59 3 59 15 0 11 -11 15 -40 15 -22 0 -40 5
-40 11 0 6 18 49 40 96 22 47 40 92 40 99 0 10 -16 14 -60 14 -46 0 -60 -3
-60 -14z"/>
<path d="M6450 355 c0 -104 2 -125 15 -125 13 0 15 21 15 125 0 104 -2 125
-15 125 -13 0 -15 -21 -15 -125z"/>
<path d="M6562 358 c3 -108 5 -123 21 -126 15 -3 17 6 18 85 l0 88 33 -85 c25
-65 38 -85 52 -85 17 0 19 10 22 123 2 117 2 122 -18 122 -18 0 -20 -6 -21
-82 l0 -83 -32 82 c-27 70 -36 83 -55 83 -22 0 -23 -1 -20 -122z"/>
<path d="M6790 355 l0 -125 55 0 c41 0 55 4 55 14 0 10 -13 16 -37 18 -36 3
-38 5 -41 41 -3 36 -3 37 32 37 29 0 36 4 36 20 0 16 -7 20 -35 20 -33 0 -35
2 -35 35 0 34 1 35 40 35 29 0 40 4 40 15 0 12 -13 15 -55 15 l-55 0 0 -125z"/>
</g>
</svg>
